<?xml version="1.0" standalone="no"?>
<!DOCTYPE svg PUBLIC "-//W3C//DTD SVG 20010904//EN"
 "http://www.w3.org/TR/2001/REC-SVG-20010904/DTD/svg10.dtd">
<svg version="1.0" xmlns="http://www.w3.org/2000/svg"
 width="920.000000pt" height="512.000000pt" viewBox="0 0 920.000000 512.000000"
 preserveAspectRatio="xMidYMid meet">

<g transform="translate(0.000000,512.000000) scale(0.100000,-0.100000)"
fill="#000000" stroke="none">
<path d="M2194 5111 c-50 -13 -93 -43 -121 -86 -23 -33 -28 -51 -28 -105 1
-86 31 -136 106 -174 l53 -26 399 0 c434 0 458 -3 507 -53 58 -59 12 87 600
-1917 468 -1597 427 -1466 498 -1575 134 -204 283 -322 488 -388 68 -21 75
-22 944 -25 l876 -3 44 24 c93 49 130 169 82 262 -23 46 -43 65 -91 90 -30 15
-105 17 -870 19 -783 2 -839 4 -886 21 -140 51 -258 174 -300 311 -8 27 -15
52 -15 57 0 4 368 7 818 7 718 0 825 2 872 16 68 20 118 52 161 102 36 43 739
1540 791 1684 66 187 38 372 -73 472 -46 42 -123 81 -182 92 l-38 6 -236 472
c-129 259 -247 484 -261 499 -39 42 -80 60 -137 60 -42 1 -109 -22 -410 -142
-198 -79 -366 -148 -373 -154 -16 -13 0 -29 -202 208 -89 105 -180 202 -201
216 -65 45 -158 45 -218 2 -14 -11 -246 -276 -516 -590 -283 -330 -493 -566
-497 -559 -3 6 -47 151 -97 321 -49 171 -102 346 -116 390 -62 188 -166 327
-301 397 -129 68 -149 70 -619 74 -231 1 -434 -1 -451 -5z m3000 -837 c158
-185 286 -338 283 -340 -2 -2 -264 -3 -581 -2 l-577 3 288 337 c158 186 290
337 293 338 3 0 135 -151 294 -336z m1044 -59 l142 -285 -185 0 -185 0 -167
196 c-93 107 -169 199 -171 204 -3 8 381 168 408 169 10 1 62 -94 158 -284z
m-1458 -870 l0 -175 -362 2 -362 3 -47 149 c-26 81 -50 159 -53 172 l-6 24
415 0 415 0 0 -175z m800 0 l0 -175 -270 0 -270 0 0 175 0 175 270 0 270 0 0
-175z m1170 168 c0 -4 -34 -83 -76 -175 l-77 -168 -381 0 -381 0 0 175 0 175
458 0 c251 0 457 -3 457 -7z m-1970 -773 l0 -170 -268 0 -267 0 -49 158 c-27
86 -51 163 -53 170 -4 9 63 12 316 12 l321 0 0 -170z m800 0 l0 -170 -270 0
-270 0 0 170 0 170 270 0 270 0 0 -170z m886 155 c-3 -8 -38 -85 -77 -170
l-72 -155 -241 0 -241 0 2 168 c1 92 2 168 3 170 0 1 142 2 316 2 278 0 315
-2 310 -15z m-1686 -760 l0 -175 -172 2 -172 3 -52 165 c-29 91 -53 168 -53
173 -1 4 100 7 224 7 l225 0 0 -175z m800 0 l0 -175 -270 0 -270 0 0 175 0
175 270 0 270 0 0 -175z m610 168 c0 -5 -35 -82 -78 -173 l-78 -165 -100 -3
-100 -3 1 176 0 175 178 0 c97 0 177 -3 177 -7z"/>
<path d="M4703 702 c-97 -35 -163 -94 -214 -192 -21 -39 -24 -59 -24 -145 0
-87 3 -107 26 -155 128 -271 514 -271 647 0 24 48 27 67 27 150 0 82 -4 103
-27 152 -33 71 -106 143 -178 176 -74 34 -184 40 -257 14z"/>
<path d="M5903 706 c-217 -71 -318 -308 -217 -507 108 -214 407 -260 570 -87
79 83 109 164 102 275 -7 127 -85 241 -204 299 -68 33 -183 42 -251 20z"/>
</g>
</svg>
